<svg width="761" height="368" viewBox="0 0 761 368" fill="none" xmlns="http://www.w3.org/2000/svg">
<rect width="761" height="368" rx="52" fill="#696566"/>
<rect x="12.5" y="12.5" width="736" height="343" rx="39.5" stroke="#FF002E" stroke-opacity="0.7" stroke-width="25"/>
<path fill-rule="evenodd" clip-rule="evenodd" d="M278.5 268C278.5 259.854 286.951 253.25 297.375 253.25C307.799 253.25 316.25 259.854 316.25 268C316.25 276.146 307.799 282.75 297.375 282.75C286.951 282.75 278.5 276.146 278.5 268Z" fill="#1ABCFE"/>
<path fill-rule="evenodd" clip-rule="evenodd" d="M240.75 297.5C240.75 289.354 249.201 282.75 259.625 282.75H278.5V297.5C278.5 305.646 270.049 312.25 259.625 312.25C249.201 312.25 240.75 305.646 240.75 297.5Z" fill="#0ACF83"/>
<path fill-rule="evenodd" clip-rule="evenodd" d="M278.5 223.75V253.25H297.375C307.799 253.25 316.25 246.646 316.25 238.5C316.25 230.354 307.799 223.75 297.375 223.75H278.5Z" fill="#FF7262"/>
<path fill-rule="evenodd" clip-rule="evenodd" d="M240.75 238.5C240.75 246.646 249.201 253.25 259.625 253.25H278.5V223.75H259.625C249.201 223.75 240.75 230.354 240.75 238.5Z" fill="#F24E1E"/>
<path fill-rule="evenodd" clip-rule="evenodd" d="M240.75 268C240.75 276.146 249.201 282.75 259.625 282.75H278.5V253.25H259.625C249.201 253.25 240.75 259.854 240.75 268Z" fill="#A259FF"/>
<path fill-rule="evenodd" clip-rule="evenodd" d="M572.178 232.005L565.084 228.831C564.638 228.625 564.361 228.255 564.361 227.852V221.098C564.361 220.696 564.087 220.323 563.641 220.123L560.621 218.763C560.402 218.661 560.149 218.611 559.904 218.611C559.652 218.611 559.406 218.661 559.181 218.763L556.159 220.123C555.712 220.323 555.439 220.696 555.439 221.098V227.852C555.439 228.255 555.166 228.623 554.718 228.831L547.622 232.005C547.402 232.11 547.128 232.11 546.906 232.005C546.68 231.908 546.546 231.72 546.546 231.519L546.52 217.061C546.52 216.656 546.796 216.283 547.241 216.082L559.181 210.713C559.385 210.62 559.611 210.572 559.839 210.565C559.856 210.565 559.943 210.565 559.963 210.565C560.192 210.572 560.418 210.62 560.621 210.713L572.559 216.083C573.007 216.284 573.28 216.656 573.28 217.061L573.257 231.519C573.257 231.721 573.118 231.908 572.898 232.005C572.678 232.111 572.4 232.111 572.178 232.005ZM618.105 228.129V217.354C618.105 216.951 618.38 216.58 618.826 216.379L630.771 210.992C631.216 210.791 631.765 210.79 632.212 210.991L635.202 212.338C635.359 212.409 635.552 212.409 635.707 212.338C635.862 212.267 635.959 212.137 635.959 211.997V197.678C635.959 197.478 636.095 197.294 636.315 197.192C636.536 197.091 636.809 197.09 637.032 197.187L644.139 200.286C644.597 200.485 644.88 200.862 644.88 201.27V228.129C644.88 228.533 644.605 228.904 644.158 229.106L632.213 234.496C631.767 234.699 631.216 234.699 630.769 234.496L618.826 229.106C618.38 228.904 618.105 228.532 618.105 228.129ZM627.001 224.59C627.001 224.69 627.07 224.783 627.181 224.833L631.282 226.68C631.393 226.73 631.531 226.73 631.642 226.68L635.743 224.833C635.854 224.783 635.923 224.69 635.923 224.59V220.889C635.923 220.788 635.854 220.695 635.743 220.645L631.643 218.794C631.531 218.744 631.393 218.744 631.281 218.794L627.18 220.645C627.07 220.695 627.001 220.788 627.001 220.889V224.59ZM679.761 216.232L667.895 210.848C667.449 210.645 666.897 210.644 666.45 210.847L654.51 216.232C654.064 216.434 653.789 216.806 653.789 217.209V227.98C653.789 228.386 654.068 228.759 654.518 228.96L666.383 234.243C666.82 234.439 667.358 234.439 667.797 234.25L674.973 231.132C675.201 231.033 675.343 230.846 675.344 230.643C675.346 230.441 675.208 230.252 674.982 230.151L662.967 224.762C662.744 224.661 662.605 224.474 662.605 224.273V220.897C662.605 220.696 662.742 220.51 662.966 220.408L666.705 218.723C666.928 218.623 667.202 218.623 667.425 218.723L671.166 220.408C671.39 220.51 671.527 220.696 671.527 220.897V223.554C671.527 223.755 671.665 223.941 671.889 224.042C672.113 224.141 672.387 224.141 672.611 224.041L679.761 220.792C680.207 220.59 680.48 220.219 680.48 219.817V217.207C680.48 216.805 680.207 216.433 679.761 216.232ZM583.059 228.906L594.997 234.296C595.444 234.498 595.993 234.498 596.44 234.296L608.383 228.906C608.829 228.704 609.104 228.333 609.104 227.93V217.151C609.104 216.749 608.829 216.376 608.382 216.175L596.44 210.79C595.993 210.588 595.444 210.588 594.998 210.79L583.059 216.175C582.611 216.376 582.337 216.749 582.337 217.151V227.93C582.337 228.333 582.612 228.704 583.059 228.906ZM654.183 253.77L617.366 237.144C615.056 236.115 611.958 236.115 609.628 237.144L572.811 253.77C570.426 254.843 568.95 256.857 568.95 259.014V292.218C568.95 294.374 570.426 296.39 572.811 297.466L582.464 301.811C587.142 303.611 588.819 303.611 590.946 303.611C597.87 303.611 601.849 300.337 601.849 294.629V261.848C601.849 261.384 601.365 261.019 600.782 261.019H596.112C595.519 261.019 595.043 261.384 595.043 261.848V294.629C595.043 297.16 591.692 299.678 586.22 297.542L576.134 292.986C575.779 292.835 575.553 292.537 575.553 292.218V259.014C575.553 258.699 575.779 258.385 576.136 258.225L612.932 241.628C613.273 241.473 613.726 241.473 614.065 241.628L650.869 258.221C651.221 258.385 651.44 258.688 651.44 259.014V292.218C651.44 292.537 651.221 292.842 650.878 292.995L614.059 309.603C613.744 309.753 613.261 309.753 612.919 309.603L603.475 305.22C603.194 305.094 602.834 305.047 602.561 305.168C599.947 306.327 599.452 306.479 597.003 307.144C596.397 307.309 595.502 307.593 597.336 308.393L609.629 314.077C610.806 314.61 612.146 314.885 613.49 314.885C614.854 314.885 616.19 314.61 617.367 314.077L654.183 297.465C656.568 296.381 658.051 294.374 658.051 292.218V259.014C658.05 256.857 656.567 254.847 654.183 253.77ZM626.313 289.051C615.327 289.051 612.91 286.894 612.1 282.624C612.006 282.168 611.506 281.828 610.907 281.828H605.539C604.874 281.828 604.34 282.244 604.34 282.766C604.34 288.23 608.146 294.747 626.314 294.747C639.469 294.747 647.012 290.7 647.012 283.631C647.012 276.621 640.95 274.757 628.193 273.437C615.299 272.104 613.989 271.416 613.989 269.057C613.989 267.112 615.099 264.512 624.649 264.512C633.178 264.512 636.321 265.948 637.614 270.439C637.728 270.863 638.221 271.171 638.779 271.171H644.167C644.502 271.171 644.819 271.059 645.046 270.873C645.274 270.676 645.395 270.42 645.363 270.15C644.529 262.411 637.948 258.805 624.649 258.805C612.811 258.805 605.751 262.709 605.751 269.253C605.751 276.355 612.775 278.318 624.134 279.194C637.728 280.237 638.783 281.788 638.783 283.879C638.783 287.506 635.06 289.051 626.313 289.051ZM667.272 220.288C667.187 220.248 667.082 220.248 666.996 220.288L664.706 221.321C664.62 221.359 664.567 221.431 664.567 221.508V223.577C664.567 223.654 664.62 223.725 664.706 223.764L666.996 224.797C667.081 224.836 667.187 224.836 667.272 224.797L669.564 223.764C669.651 223.725 669.703 223.654 669.703 223.577V221.508C669.703 221.431 669.651 221.359 669.564 221.321L667.272 220.288Z" fill="black"/>
<path d="M488.375 256.312H438.812C436.525 256.312 435 254.838 435 252.625V213.169C435 211.325 436.525 209.85 438.05 209.481L487.612 201C488.756 201 489.9 201 490.663 201.738C491.806 202.475 492.188 203.581 492.188 204.688V252.625C492.188 254.838 490.662 256.312 488.375 256.312Z" fill="#00ADEF"/>
<path d="M423.562 256.312H377.812C375.525 256.312 374 254.838 374 252.625V223.125C374 221.281 375.525 219.806 377.05 219.438L422.8 212.062C423.944 212.062 425.088 212.063 425.85 212.8C426.994 213.538 427.375 214.644 427.375 215.75V252.625C427.375 254.838 425.85 256.312 423.562 256.312Z" fill="#00ADEF"/>
<path d="M488.375 319C487.994 319 487.994 319 487.612 319L438.05 310.519C436.144 310.15 435 308.675 435 306.831V267.375C435 265.162 436.525 263.688 438.812 263.688H488.375C490.662 263.688 492.188 265.162 492.188 267.375V315.312C492.188 316.419 491.806 317.525 490.663 318.262C490.281 318.631 489.138 319 488.375 319Z" fill="#00ADEF"/>
<path d="M423.562 307.938C423.181 307.938 423.181 307.938 422.8 307.938L377.05 300.562C375.525 300.194 374 298.719 374 296.875V267.375C374 265.162 375.525 263.688 377.812 263.688H423.562C425.85 263.688 427.375 265.162 427.375 267.375V304.25C427.375 305.356 426.994 306.462 425.85 307.2C425.469 307.569 424.325 307.938 423.562 307.938Z" fill="#00ADEF"/>
<path d="M619.371 62.375H499.628C496.209 62.375 493.438 64.541 493.438 67.213V160.787C493.438 163.459 496.209 165.625 499.628 165.625H619.371C622.791 165.625 625.562 163.459 625.562 160.787V67.213C625.562 64.541 622.791 62.375 619.371 62.375Z" fill="#3178C6"/>
<path fill-rule="evenodd" clip-rule="evenodd" d="M570.093 142.611V153.925C572.724 154.939 575.527 155.653 578.417 156.045C581.757 156.527 585.147 156.764 588.544 156.753C591.854 156.765 595.156 156.504 598.396 155.975C601.305 155.515 604.081 154.64 606.583 153.394C608.906 152.222 610.821 150.618 612.156 148.725C614.547 144.807 614.862 140.309 613.034 136.21C612.262 134.677 611.113 133.277 609.65 132.091C608.081 130.829 606.298 129.741 604.351 128.857C602.11 127.831 599.781 126.927 597.382 126.15C595.494 125.538 593.795 124.943 592.285 124.366C590.944 123.864 589.661 123.273 588.449 122.599C587.5 122.079 586.676 121.433 586.014 120.689C585.443 120.014 585.145 119.22 585.16 118.41C585.148 117.665 585.413 116.933 585.925 116.305C586.48 115.647 587.221 115.097 588.091 114.697C589.154 114.208 590.31 113.855 591.516 113.653C592.997 113.396 594.511 113.273 596.027 113.285C597.303 113.288 598.577 113.359 599.84 113.498C601.204 113.643 602.554 113.861 603.879 114.151C605.228 114.443 606.546 114.813 607.824 115.257C609.065 115.689 610.251 116.21 611.368 116.814V106.256C609.042 105.569 606.63 105.074 604.172 104.781C601.203 104.444 598.206 104.285 595.206 104.306C591.927 104.292 588.658 104.583 585.467 105.172C582.583 105.687 579.84 106.603 577.37 107.875C575.075 109.07 573.18 110.677 571.844 112.562C570.428 114.655 569.728 116.998 569.81 119.365C569.706 122.495 571.025 125.553 573.533 127.994C576.611 130.701 580.491 132.776 584.835 134.038C586.816 134.677 588.665 135.303 590.379 135.915C591.926 136.453 593.413 137.09 594.824 137.821C595.963 138.4 596.962 139.13 597.778 139.978C598.495 140.748 598.876 141.678 598.863 142.63C598.87 143.343 598.636 144.045 598.184 144.665C597.682 145.331 596.977 145.89 596.131 146.291C595.073 146.796 593.916 147.159 592.705 147.368C591.129 147.644 589.517 147.774 587.902 147.755C584.732 147.751 581.588 147.314 578.611 146.465C575.5 145.588 572.615 144.283 570.093 142.611ZM545.773 114.446H564.648V105.128H512.02V114.446H530.81V155.945H545.773V114.446Z" fill="white"/>
<g clip-path="url(#clip0_186_133)">
<path d="M424.35 53H318.65C306.141 53 296 60.9246 296 70.7V153.3C296 163.075 306.141 171 318.65 171H424.35C436.859 171 447 163.075 447 153.3V70.7C447 60.9246 436.859 53 424.35 53Z" fill="#F7DF1E"/>
<path d="M391.555 138.273C394.504 142.191 398.633 144.957 405.416 144.957C411.314 144.957 415.148 142.652 415.148 139.426C415.148 135.738 411.314 134.355 404.826 132.051L401.287 130.898C390.965 127.441 384.182 123.293 384.182 114.305C384.182 106.008 392.145 99.5547 404.826 99.5547C413.969 99.5547 420.457 102.09 424.881 108.543L413.969 114.074C411.609 110.617 408.955 109.234 404.826 109.234C400.697 109.234 398.043 111.309 398.043 114.074C398.043 117.301 400.697 118.684 406.891 120.758L410.43 121.91C422.521 126.059 429.305 129.977 429.305 139.426C429.305 149.336 419.277 154.867 405.711 154.867C392.439 154.867 383.887 150.027 379.758 143.574L391.555 138.273ZM341.418 139.195C343.777 142.191 345.547 144.957 350.561 144.957C355.279 144.957 358.229 143.574 358.229 138.043V99.7852H372.385V137.582C372.385 149.105 363.832 154.176 351.15 154.176C339.648 154.176 333.16 149.566 329.916 144.035L341.418 139.195Z" fill="black"/>
</g>
<g clip-path="url(#clip1_186_133)">
<path d="M126.435 318.702L82.8576 309.248L73.1465 224.131H179.854L170.133 309.235L126.435 318.702Z" fill="#264DE4"/>
<path d="M161.81 303.816L170.118 231.091H126.5V311.466L161.81 303.816Z" fill="#2965F1"/>
<path d="M95.4092 262.659L96.6065 273.099H126.501V262.659H95.4092Z" fill="#EBEBEB"/>
<path d="M93.0029 241.53L94.2173 251.97H126.5V241.53H93.0029Z" fill="#EBEBEB"/>
<path d="M126.5 289.771L126.442 289.783L111.564 286.644L110.613 278.318H97.2031L99.0747 294.709L126.439 300.646L126.5 300.633V289.771Z" fill="#EBEBEB"/>
<path d="M98.2598 201H114.439V206.287H105.026V211.575H114.439V216.862H98.2598V201Z" fill="black"/>
<path d="M117.675 201H133.855V205.598H124.441V206.517H133.855V217.092H117.675V212.264H127.088V211.345H117.675V201Z" fill="black"/>
<path d="M137.091 201H153.271V205.598H143.857V206.517H153.271V217.092H137.091V212.264H146.504V211.345H137.091V201Z" fill="black"/>
<path d="M157.506 262.659L159.918 241.53H126.454V251.97H145.278L144.062 262.659H126.454V273.099H142.904L141.353 286.638L126.454 289.78V300.641L153.84 294.71L154.041 292.946L157.18 265.463L157.506 262.659Z" fill="white"/>
</g>
<g clip-path="url(#clip2_186_133)">
<path d="M246.854 82.1312L237.133 167.235L193.435 176.702L149.858 167.248L140.146 82.1312H246.854Z" fill="#E44D26"/>
<path d="M193.5 169.466L228.81 161.816L237.118 89.0908H193.5V169.466Z" fill="#F16529"/>
<path d="M174.602 109.97H193.5V99.5302H160.003L160.323 102.331L163.606 131.099H193.5V120.659H175.823L174.602 109.97Z" fill="#EBEBEB"/>
<path d="M177.613 136.318H164.203L166.075 152.709L193.439 158.646L193.5 158.633V147.771L193.442 147.783L178.564 144.644L177.613 136.318Z" fill="#EBEBEB"/>
<path d="M150.074 59H156.863V64.2414H163.073V59H169.862V74.8723H163.073V69.5573H156.863V74.8723H150.075L150.074 59Z" fill="black"/>
<path d="M178.79 64.2635H172.813V59H191.558V64.2635H185.579V74.8723H178.79L178.79 64.2635Z" fill="black"/>
<path d="M194.533 59H201.612L205.966 64.577L210.316 59H217.398V74.8723H210.637V67.0051L205.966 72.6486H205.85L201.176 67.0051V74.8723H194.533V59Z" fill="black"/>
<path d="M220.776 59H227.567V69.6258H237.114V74.8723H220.776V59Z" fill="black"/>
<path d="M193.454 131.099H209.904L208.353 144.638L193.454 147.78V158.641L220.84 152.71L221.041 150.946L224.18 123.463L224.506 120.659H193.454V131.099Z" fill="white"/>
<path d="M193.454 109.944V109.97H225.722L225.99 107.623L226.598 102.331L226.918 99.5302H193.454V109.944Z" fill="white"/>
</g>
<defs>
<clipPath id="clip0_186_133">
<rect width="151" height="118" fill="white" transform="translate(296 53)"/>
</clipPath>
<clipPath id="clip1_186_133">
<rect width="151" height="118" fill="white" transform="translate(51 201)"/>
</clipPath>
<clipPath id="clip2_186_133">
<rect width="151" height="118" fill="white" transform="translate(118 59)"/>
</clipPath>
</defs>
</svg>
