<svg width="140" height="140" viewBox="0 0 140 140" fill="none" xmlns="http://www.w3.org/2000/svg">
<path d="M70.0003 128.333C102.217 128.333 128.334 102.217 128.334 70C128.334 37.7834 102.217 11.6667 70.0003 11.6667C37.7837 11.6667 11.667 37.7834 11.667 70C11.667 102.217 37.7837 128.333 70.0003 128.333Z" fill="#FF002E" fill-opacity="0.8"/>
<path d="M19.873 99.8521C26.9741 111.749 38.1909 120.903 51.5589 125.354C54.4776 125.887 55.541 124.086 55.541 122.539C55.541 121.899 55.5302 120.767 55.5159 119.253C55.4993 117.498 55.4777 115.231 55.4623 112.619C39.2366 116.143 35.8133 104.799 35.8133 104.799C33.1597 98.0627 29.3351 96.2687 29.3351 96.2687C24.0387 92.6482 29.7361 92.7197 29.7361 92.7197C35.591 93.1353 38.6707 98.7324 38.6707 98.7324C43.8741 107.646 52.3254 105.071 55.6486 103.581C56.1786 99.8104 57.6824 97.239 59.3514 95.7816C46.3987 94.3098 32.7799 89.3034 32.7799 66.9506C32.7799 60.5835 35.0541 55.3767 38.7854 51.298C38.1836 49.8225 36.1819 43.8923 39.3547 35.8601C39.3547 35.8601 44.2535 34.2915 55.3978 41.8404C60.0496 40.5478 65.0415 39.8994 70.0013 39.8781C74.9538 39.8994 79.9459 40.5478 84.6047 41.8404C95.7417 34.2915 100.63 35.8601 100.63 35.8601C103.814 43.8923 101.812 49.8225 101.21 51.298C104.949 55.3767 107.208 60.5835 107.208 66.9506C107.208 89.3608 93.5682 94.2917 80.5724 95.7349C82.6675 97.5362 84.5333 101.096 84.5333 106.539C84.5333 111.753 84.5012 116.294 84.4799 119.302C84.4694 120.792 84.4615 121.906 84.4615 122.539C84.4615 124.1 85.5107 125.916 88.4722 125.347C99.1216 121.792 108.404 115.253 115.326 106.722C104.631 119.906 88.2996 128.333 69.9995 128.333C48.6921 128.333 30.0531 116.909 19.873 99.8521Z" fill="#3F3E3E"/>
</svg>
