<svg width="118" height="131" viewBox="0 0 118 131" fill="none" xmlns="http://www.w3.org/2000/svg">
<g clip-path="url(#clip0_186_140)">
<path d="M113.607 18.6812H4.3929C1.96921 18.6812 0 20.8652 0 23.5586V107.441C0 110.135 1.96921 112.319 4.3929 112.319H113.607C116.031 112.319 118 110.135 118 107.441V23.5586C118 20.8652 116.031 18.6812 113.607 18.6812ZM109.662 100.349C109.662 102.586 107.993 104.4 105.935 104.4H99.8127V40.4178L61.7616 67.8426C60.9246 68.4463 59.962 68.7464 59 68.7464C58.038 68.7464 57.0749 68.4463 56.2384 67.8426L18.1878 40.4178V104.4H12.0653C10.0078 104.4 8.33827 102.586 8.33827 100.349V30.6508C8.33827 28.4129 10.0073 26.5991 12.0653 26.5991H17.1141L59.0005 56.7878L100.887 26.5991H105.936C107.993 26.5991 109.663 28.4129 109.663 30.6508V100.349H109.662Z" fill="#FF002E" fill-opacity="0.7"/>
</g>
<defs>
<clipPath id="clip0_186_140">
<rect width="118" height="131" fill="white"/>
</clipPath>
</defs>
</svg>
