<svg width="120" height="120" viewBox="0 0 120 120" fill="none" xmlns="http://www.w3.org/2000/svg">
<g clip-path="url(#clip0_186_130)">
<path d="M120 58.4563C120 90.7386 93.6264 116.909 61.0859 116.909C50.7594 116.909 41.0591 114.267 32.6149 109.642L0 120L10.6316 88.6295C5.27081 79.8252 2.18345 69.4871 2.18345 58.4524C2.18737 26.1702 28.5532 0 61.0937 0C93.6303 0.007826 120 26.1741 120 58.4563ZM61.0819 9.32077C33.7731 9.32077 11.559 31.3666 11.559 58.4681C11.559 69.221 15.0651 79.1757 20.9932 87.2756L14.8107 105.522L33.8357 99.4763C41.6617 104.61 51.0255 107.6 61.0819 107.6C88.3908 107.6 110.613 85.5578 110.613 58.4563C110.621 31.3666 88.3947 9.32077 61.0819 9.32077ZM90.8364 71.921C90.4686 71.3301 89.506 70.9701 88.066 70.2501C86.6299 69.5301 79.52 66.0671 78.2013 65.5975C76.8709 65.1162 75.9083 64.8736 74.9457 66.3097C73.9949 67.7458 71.2244 70.9701 70.3753 71.9327C69.534 72.8914 68.6927 73.0127 67.2488 72.3044C65.8049 71.5766 61.1485 70.074 55.6311 65.1945C51.3386 61.3911 48.439 56.7072 47.6017 55.2711C46.7525 53.839 47.5156 53.0642 48.2317 52.352C48.8773 51.7064 49.6755 50.6773 50.3995 49.836C51.1234 49.0025 51.362 48.4116 51.8433 47.453C52.3168 46.4943 52.0781 45.6608 51.722 44.9369C51.3621 44.2169 48.4782 37.1735 47.2691 34.3053C46.0678 31.441 44.8665 31.9144 44.0213 31.9144C43.18 31.9144 42.2174 31.797 41.2548 31.797C40.2922 31.797 38.727 32.1453 37.4083 33.5814C36.0896 35.0174 32.3566 38.4804 32.3566 45.5317C32.3566 52.5907 37.5257 59.3954 38.2496 60.3502C38.9774 61.3011 48.2434 76.2448 62.9211 81.9813C77.6066 87.7138 77.6066 85.8004 80.2517 85.5578C82.9048 85.3152 88.7977 82.0948 89.9951 78.7531C91.2003 75.3957 91.2003 72.5196 90.8364 71.921Z" fill="#FF002E" fill-opacity="0.8"/>
</g>
<defs>
<clipPath id="clip0_186_130">
<rect width="120" height="120" fill="white"/>
</clipPath>
</defs>
</svg>
